<svg width="26" height="24" viewBox="0 0 26 24" fill="none" xmlns="http://www.w3.org/2000/svg">
<path fill-rule="evenodd" clip-rule="evenodd" d="M8.06389 0.000198088C7.28108 0.000198088 6.4995 0.110611 5.75639 0.359969C1.17737 1.84868 -0.472616 6.87307 0.90568 11.2648C1.68725 13.509 2.96506 15.5572 4.63862 17.2308C7.0342 19.5507 9.66301 21.6101 12.4928 23.3841L12.8029 23.5714L13.1255 23.3717C15.9652 21.6101 18.6089 19.5507 21.0268 17.2184C22.6892 15.5448 23.9683 13.509 24.7622 11.2648C26.1641 6.87307 24.5141 1.84868 19.8855 0.333917C19.5257 0.209858 19.1548 0.123017 18.7826 0.0746335H18.6337C18.2851 0.0237693 17.939 0.000198088 17.5916 0.000198088H17.4552C16.6736 0.0237693 15.9168 0.160234 15.1836 0.409593H15.1104C15.0608 0.433164 15.0236 0.459217 14.9988 0.482788C14.7246 0.57087 14.4653 0.670117 14.2172 0.806582L13.7458 1.01748C13.6319 1.07824 13.504 1.17107 13.3935 1.2513C13.3235 1.30213 13.2605 1.3479 13.2123 1.37725C13.1921 1.3892 13.1715 1.40121 13.1508 1.41332C13.0444 1.47541 12.9336 1.5401 12.8402 1.61173C11.4619 0.558464 9.78831 -0.0122078 8.06389 0.000198088ZM4.76941 8.93188C4.26077 8.91823 3.82657 8.51008 3.78935 7.98779V7.84016C3.75213 6.10209 4.80539 4.52778 6.407 3.91989C6.91564 3.74497 7.4739 4.01914 7.65999 4.54018C7.83368 5.06123 7.56075 5.63191 7.0397 5.81675C6.24448 6.1145 5.71227 6.89731 5.71227 7.76448V7.80294C5.73584 8.08704 5.65024 8.36121 5.47655 8.57211C5.30287 8.78301 5.04235 8.90583 4.76941 8.93188Z" fill="#EC5655"/>
<path fill-rule="evenodd" clip-rule="evenodd" d="M17.6108 0.000198088C18.3936 0.000198088 19.1752 0.110611 19.9183 0.359969C24.4973 1.84868 26.1473 6.87307 24.769 11.2648C23.9874 13.509 22.7096 15.5572 21.0361 17.2308C18.6405 19.5507 16.0117 21.6101 13.1819 23.3841L12.8717 23.5714L12.5492 23.3717C9.70947 21.6101 7.06577 19.5507 4.64786 17.2184C2.98547 15.5448 1.70642 13.509 0.91244 11.2648C-0.489428 6.87307 1.16056 1.84868 5.7892 0.333917C6.14897 0.209858 6.51991 0.123017 6.89209 0.0746335H7.04096C7.38956 0.0237693 7.73569 0.000198088 8.08305 0.000198088H8.21952C9.00109 0.0237693 9.75785 0.160234 10.491 0.409593H10.5642C10.6139 0.433164 10.6511 0.459217 10.6759 0.482788C10.9501 0.57087 11.2093 0.670117 11.4575 0.806582L11.9289 1.01748C12.0428 1.07824 12.1707 1.17107 12.2812 1.2513C12.3512 1.30213 12.4142 1.3479 12.4623 1.37725C12.4826 1.3892 12.5032 1.40121 12.5239 1.41331C12.6303 1.47541 12.7411 1.54009 12.8345 1.61173C14.2128 0.558464 15.8864 -0.0122078 17.6108 0.000198088ZM20.9053 8.93188C21.4139 8.91823 21.8481 8.51008 21.8853 7.98779V7.84016C21.9226 6.10209 20.8693 4.52778 19.2677 3.91989C18.759 3.74497 18.2008 4.01914 18.0147 4.54018C17.841 5.06123 18.1139 5.63191 18.635 5.81675C19.4302 6.1145 19.9624 6.89731 19.9624 7.76448V7.80294C19.9388 8.08704 20.0244 8.36121 20.1981 8.57211C20.3718 8.78301 20.6323 8.90583 20.9053 8.93188Z" fill="#EC5655"/>
</svg>
